<?xml version="1.0" encoding="UTF-8" standalone="no"?>
<svg
   xmlns:dc="http://purl.org/dc/elements/1.1/"
   xmlns:cc="http://creativecommons.org/ns#"
   xmlns:rdf="http://www.w3.org/1999/02/22-rdf-syntax-ns#"
   xmlns:svg="http://www.w3.org/2000/svg"
   xmlns="http://www.w3.org/2000/svg"
   xmlns:sodipodi="http://sodipodi.sourceforge.net/DTD/sodipodi-0.dtd"
   xmlns:inkscape="http://www.inkscape.org/namespaces/inkscape"
   viewBox="0 0 576 576"
   version="1.1"
   id="svg15"
   sodipodi:docname="thumbnail.svg"
   width="576"
   height="576"
   inkscape:version="0.92.1 r15371"
   inkscape:export-filename="/home/branko/projects/factorio/quickbar-vertical-swap/thumbnail.png"
   inkscape:export-xdpi="24"
   inkscape:export-ydpi="24">
  <metadata
     id="metadata19">
    <rdf:RDF>
      <cc:Work
         rdf:about="">
        <dc:format>image/svg+xml</dc:format>
        <dc:type
           rdf:resource="http://purl.org/dc/dcmitype/StillImage" />
        <dc:title></dc:title>
      </cc:Work>
    </rdf:RDF>
  </metadata>
  <sodipodi:namedview
     pagecolor="#ffffff"
     bordercolor="#666666"
     borderopacity="1"
     objecttolerance="10"
     gridtolerance="10"
     guidetolerance="10"
     inkscape:pageopacity="0"
     inkscape:pageshadow="2"
     inkscape:window-width="1920"
     inkscape:window-height="1027"
     id="namedview17"
     showgrid="false"
     showguides="true"
     inkscape:guide-bbox="true"
     inkscape:zoom="0.921875"
     inkscape:cx="68.033265"
     inkscape:cy="302.20218"
     inkscape:window-x="0"
     inkscape:window-y="0"
     inkscape:window-maximized="1"
     inkscape:current-layer="svg15" />
  <defs
     id="defs7">
    <linearGradient
       id="lorc-back-forth-gradient-0"
       x1="0"
       y1="0"
       x2="512"
       y2="0"
       gradientUnits="userSpaceOnUse"
       gradientTransform="translate(32,32)">
      <stop
         offset="0%"
         stop-color="#dd7f21"
         stop-opacity="1"
         id="stop2" />
      <stop
         offset="100%"
         stop-color="#000"
         stop-opacity="1"
         id="stop4" />
    </linearGradient>
  </defs>
  <rect
     height="512"
     width="512"
     rx="32"
     ry="32"
     id="rect9"
     x="32"
     y="32"
     style="fill:url(#lorc-back-forth-gradient-0);stroke-width:1" />
  <g
     class=""
     id="g13"
     transform="matrix(0.71887368,-0.41504191,0.41504191,0.71887368,-2.5460423,210.50448)">
    <path
       d="M 241.844,28.625 220.656,33.688 33.25,78.53 l -9.594,2.282 2.813,9.47 54.718,184.03 6.156,20.782 10.875,-18.75 36.624,-63.125 39.344,22.655 9.375,-16.188 -47.47,-27.312 -8.091,-4.654 -4.656,8.06 -30.406,52.47 -45.75,-153.844 156.625,-37.47 -30.344,52.345 -4.69,8.126 8.126,4.656 155.845,89.687 -17.594,30.344 16.22,9.312 22.25,-38.375 4.687,-8.124 -8.125,-4.656 -155.844,-89.688 36.594,-63.093 z m -28.25,176.47 -57.438,99.31 155.22,89.5 8.093,4.658 -4.69,8.093 -44.06,76.25 218.81,-52.5 -63.874,-215.47 -44.094,76.25 -4.656,8.064 -8.094,-4.656 -155.218,-89.5 z"
       id="path11"
       inkscape:connector-curvature="0"
       style="fill:#ffffff;fill-opacity:1" />
  </g>
</svg>
